<svg id="Capa_1" data-name="Capa 1" xmlns="http://www.w3.org/2000/svg" viewBox="0 0 343.36 209.76"><defs><style>.cls-1{fill:#54a4db;}.cls-2,.cls-4{fill:#fff;}.cls-3{fill:#e7267a;}.cls-4{font-size:17.73px;font-family:BigJohn, Big John;letter-spacing:0.4em;}.cls-5{letter-spacing:0.35em;}</style></defs><title>logo</title><path class="cls-1" d="M521.5,919.47h20.12c14.68,0,27.29,11.13,28.36,25.78a27.9,27.9,0,0,1-27.81,30H521.5Zm14.57,41.2h5.8A13.51,13.51,0,0,0,555.23,950a13.22,13.22,0,0,0-13-15.75h-6.18Z" transform="translate(-503.59 -801.23)"/><path class="cls-1" d="M614.37,971.63l-6.51-11.17,0,0h-9a0,0,0,0,0,0,0v14.73s0,0,0,0H584.17s0,0,0,0V919.5s0,0,0,0h23c10.23,0,19.24,7.3,20.77,17.42A20.45,20.45,0,0,1,621.56,955s0,0,0,0l5.4,9.24a7.28,7.28,0,0,1-6.29,11h0A7.3,7.3,0,0,1,614.37,971.63ZM598.82,947.8h8.78a8.21,8.21,0,0,0,8.28-8.24,8,8,0,0,0-8-7.75h-9a0,0,0,0,0,0,0v15.91A0,0,0,0,0,598.82,947.8Z" transform="translate(-503.59 -801.23)"/><path class="cls-1" d="M666.82,919.52a27.89,27.89,0,1,1-26,26.74A28,28,0,0,1,666.82,919.52Zm4.33,14.76a13.32,13.32,0,1,0,10.47,10.31A13.3,13.3,0,0,0,671.15,934.28Z" transform="translate(-503.59 -801.23)"/><path class="cls-1" d="M711.57,919.47h14.65v48.45a7.33,7.33,0,0,1-7.33,7.32h0a7.32,7.32,0,0,1-7.32-7.32Z" transform="translate(-503.59 -801.23)"/><path class="cls-2" d="M743.76,919.47h20.12c14.69,0,27.29,11.13,28.37,25.78a27.9,27.9,0,0,1-27.81,30H743.76Zm14.58,41.2h5.8A13.5,13.5,0,0,0,777.49,950a13.22,13.22,0,0,0-13-15.75h-6.17Z" transform="translate(-503.59 -801.23)"/><path class="cls-3" d="M817.65,953a7.3,7.3,0,0,0,8.26,7.22,7.46,7.46,0,0,0,6.32-7.48V919.47H847v33.76a22,22,0,0,1-24.14,21.91c-11.37-1.06-19.88-10.94-19.88-22.35v-26a7.35,7.35,0,0,1,7.36-7.36h0a7.35,7.35,0,0,1,7.36,7.36Z" transform="translate(-503.59 -801.23)"/><text class="cls-4" transform="translate(16.17 206.95)">xperie<tspan class="cls-5" x="110.43" y="0">n</tspan><tspan x="130.52" y="0">ces studio</tspan></text><path class="cls-1" d="M670.25,832.66A7.35,7.35,0,0,0,677.6,840h8.62q6.54,0,10,3.21t3.47,10.7c0,.78,0,1.51-.1,2.21h0v.08h0c.06.71.1,1.44.1,2.21q0,7.5-3.47,10.7t-10,3.21h-16v.08c-.5,0-1,0-1.51,0q-14,0-21.23,6.57t-7.23,18.53v6.44a7.35,7.35,0,0,0,7.35,7.35h0a7.35,7.35,0,0,0,7.35-7.35v-5.69q0-5.34,3.17-8.17t10.59-2.83c.79,0,1.54,0,2.26.09v-.13h16.14q14.65,0,22.7-7.31t8-21.46c0-.66,0-1.32,0-2v-.58c0-.64,0-1.29,0-2q0-14.14-8-21.45t-22.7-7.32H677.6a7.36,7.36,0,0,0-7.35,7.35Z" transform="translate(-503.59 -801.23)"/><path class="cls-3" d="M637.55,879.54a7.39,7.39,0,0,0-7.39-7.39h-8.58q-6.54,0-10-3.2t-3.47-10.64c0-.77,0-1.5.1-2.2h0V856h0c-.06-.71-.1-1.43-.1-2.2q0-7.46,3.47-10.65t10-3.19h16v-.08c.5,0,1,0,1.51,0q14,0,21.23-6.54T667.52,815v-7.25a6.48,6.48,0,0,0-6.47-6.48h-1.41a6.82,6.82,0,0,0-6.82,6.82v6.16c0,3.54-1.06,6.26-3.17,8.13s-5.65,2.82-10.59,2.82c-.79,0-1.54,0-2.26-.09v.13H620.66q-14.65,0-22.7,7.27t-8.05,21.36c0,.76,0,1.51.06,2.24s-.06,1.47-.06,2.24q0,14.07,8.05,21.35t22.7,7.28h9.5a7.39,7.39,0,0,0,7.39-7.4Z" transform="translate(-503.59 -801.23)"/><path class="cls-2" d="M623.45,849.67a7,7,0,0,1,5.25-1.85h45.69v-.07h4.76q7.05,0,7.06,8.09c0,2.88-.61,4.93-1.82,6.17a7,7,0,0,1-5.24,1.85H668.76v.06H628.7q-7.07,0-7.06-8.08Q621.64,851.52,623.45,849.67Z" transform="translate(-503.59 -801.23)"/><polygon class="cls-2" points="330.93 205.15 340.45 200.44 340.77 200.44 340.61 200.37 340.77 200.29 340.45 200.29 330.93 195.58 329.24 198.11 333.35 200.37 329.24 202.62 330.93 205.15"/><polygon class="cls-2" points="9.84 195.82 0.31 200.53 0 200.53 0.16 200.61 0 200.68 0.31 200.68 9.84 205.39 11.53 202.87 7.42 200.61 11.53 198.35 9.84 195.82"/></svg>