<?xml version="1.0" encoding="utf-8"?>
<!-- Generator: Adobe Illustrator 23.0.0, SVG Export Plug-In . SVG Version: 6.00 Build 0)  -->
<svg version="1.2" baseProfile="tiny" id="Capa_1" xmlns="http://www.w3.org/2000/svg" xmlns:xlink="http://www.w3.org/1999/xlink"
	 x="0px" y="0px" viewBox="0 0 350 350" xml:space="preserve">
<path fill="#54A4DB" d="M44.4,185.7h17.2c12.6,0,23.4,9.5,24.3,22.1c1,14-10,25.7-23.8,25.7H44.4V185.7z M56.9,221h5
	c5.5,0,10.4-3.7,11.5-9.1c1.4-7.1-4.1-13.5-11.1-13.5h-5.3V221z"/>
<path fill="#54A4DB" d="M124,230.4l-5.6-9.6c0,0,0,0,0,0h-7.7c0,0,0,0,0,0v12.6c0,0,0,0,0,0H98.1c0,0,0,0,0,0v-47.8c0,0,0,0,0,0
	h19.7c8.8,0,16.5,6.3,17.8,14.9c0.9,6.1-1.4,11.8-5.5,15.5c0,0,0,0,0,0l4.6,7.9c2.4,4.2-0.6,9.4-5.4,9.4h0
	C127.2,233.5,125.1,232.4,124,230.4z M110.7,210h7.5c3.9,0,7.2-3.2,7.1-7.1c-0.1-3.7-3.1-6.6-6.9-6.6h-7.7c0,0,0,0,0,0L110.7,210
	C110.6,210,110.6,210,110.7,210z"/>
<path fill="#54A4DB" d="M169,185.8c14.4-0.9,26.4,11.1,25.4,25.6c-0.8,12.1-10.9,21.8-23,22.2c-13.9,0.5-25.2-10.9-24.7-24.8
	C147.2,196.6,156.8,186.5,169,185.8z M172.7,198.4c-7.7-1.5-14.4,5-13.4,12.7c0.7,5.1,4.8,9.2,9.9,9.8c7.7,0.9,14.1-6,12.6-13.7
	C180.7,202.8,177.1,199.3,172.7,198.4z"/>
<path fill="#54A4DB" d="M207.3,185.7h12.6v41.5c0,3.5-2.8,6.3-6.3,6.3h0c-3.5,0-6.3-2.8-6.3-6.3V185.7z"/>
<path fill="#FFFFFF" d="M234.9,185.7h17.2c12.6,0,23.4,9.5,24.3,22.1c1,14-10,25.7-23.8,25.7h-17.7V185.7z M247.4,221h5
	c5.5,0,10.4-3.7,11.5-9.1c1.4-7.1-4.1-13.5-11.1-13.5h-5.3V221z"/>
<path fill="#E7267A" d="M298.3,214.5c0,3.7,3.3,6.7,7.1,6.2c3.1-0.4,5.4-3.2,5.4-6.4v-28.5h12.6v28.9c0,11.1-9.5,19.8-20.7,18.8
	c-9.7-0.9-17-9.4-17-19.2V192c0-3.5,2.8-6.3,6.3-6.3h0c3.5,0,6.3,2.8,6.3,6.3V214.5z"/>
<g>
	<path fill="#FFFFFF" d="M54.7,250.4l-3.8,5.5l4.2,5.9h-3.6l-2.4-3.3l-2.4,3.3H43l4.2-5.9l-3.8-5.5H47l2,2.8l2-2.8H54.7z"/>
	<path fill="#FFFFFF" d="M62.4,250.4h4.8c2.3,0,4.2,1.9,4.2,4.2c0,2.3-1.9,4.2-4.1,4.2h-1.9v3h-3V250.4z M65.4,256.2h1.9
		c0.9,0,1.6-0.7,1.6-1.6s-0.7-1.6-1.6-1.6h-1.9V256.2z"/>
	<path fill="#FFFFFF" d="M79.1,250.4h7.1v2.5h-4.1v1.9h3.6v2.5h-3.6v2.1h4.1v2.4h-7.1V250.4z"/>
	<path fill="#FFFFFF" d="M101,261.8l-1.8-3h-1.9v3h-3v-11.4h4.8c2.3,0,4.2,1.9,4.2,4.2c0,1.2-0.5,2.3-1.4,3.1l2.4,4.1H101z
		 M97.4,256.2h1.9c0.9,0,1.6-0.7,1.6-1.6s-0.7-1.6-1.6-1.6h-1.9V256.2z"/>
	<path fill="#FFFFFF" d="M112,250.4h3v11.4h-3V250.4z"/>
	<path fill="#FFFFFF" d="M123.4,250.4h7.1v2.5h-4.1v1.9h3.6v2.5h-3.6v2.1h4.1v2.4h-7.1V250.4z"/>
	<path fill="#FFFFFF" d="M147.1,261.8l-5.4-5.4v5.4h-3v-11.4h1.2l5.4,5.4v-5.4h3v11.4H147.1z"/>
	<path fill="#FFFFFF" d="M163.3,254.2c-0.5-0.5-1.1-0.7-1.9-0.7c-1.6,0-2.7,1.1-2.7,2.7s1.1,2.7,2.7,2.7c0.8,0,1.4-0.3,1.9-0.8
		l2.1,2.1c-1,1-2.5,1.7-4,1.7c-3.1,0-5.7-2.6-5.7-5.7c0-3.1,2.6-5.7,5.7-5.7c1.6,0,3,0.6,4,1.7L163.3,254.2z"/>
	<path fill="#FFFFFF" d="M173.8,250.4h7.1v2.5h-4.1v1.9h3.6v2.5h-3.6v2.1h4.1v2.4h-7.1V250.4z"/>
	<path fill="#FFFFFF" d="M193.3,253.9c0-0.5-0.4-0.9-0.9-0.9c-0.5,0-0.9,0.4-0.9,0.9c0,0.5,0.4,0.9,0.9,0.9c1.1,0,2.1,0.5,2.8,1.4
		c0.5,0.6,0.8,1.4,0.8,2.2c0,1.9-1.6,3.5-3.5,3.5s-3.5-1.5-3.5-3.5h2.7c0,0.5,0.4,0.9,0.9,0.9c0.5,0,0.9-0.4,0.9-0.9
		c0-0.5-0.4-0.9-0.9-0.9c-1.9,0-3.5-1.5-3.5-3.5s1.5-3.5,3.5-3.5s3.5,1.6,3.5,3.5H193.3z"/>
	<path fill="#FFFFFF" d="M221.3,253.9c0-0.5-0.4-0.9-0.9-0.9s-0.9,0.4-0.9,0.9c0,0.5,0.4,0.9,0.9,0.9c1.1,0,2.1,0.5,2.8,1.4
		c0.5,0.6,0.8,1.4,0.8,2.2c0,1.9-1.6,3.5-3.5,3.5s-3.5-1.5-3.5-3.5h2.7c0,0.5,0.4,0.9,0.9,0.9s0.9-0.4,0.9-0.9
		c0-0.5-0.4-0.9-0.9-0.9c-1.9,0-3.5-1.5-3.5-3.5s1.5-3.5,3.5-3.5s3.5,1.6,3.5,3.5H221.3z"/>
	<path fill="#FFFFFF" d="M231.9,250.4h9v3h-3v8.4h-3v-8.4h-3V250.4z"/>
	<path fill="#FFFFFF" d="M252,257.2c0,0.8,0.7,1.5,1.5,1.5c0.8,0,1.5-0.7,1.5-1.5v-6.9h3v6.9c0,2.5-2,4.5-4.5,4.5
		c-2.5,0-4.5-2-4.5-4.5v-6.9h3V257.2z"/>
	<path fill="#FFFFFF" d="M266.4,250.4h4.2c3.1,0,5.7,2.6,5.7,5.7c0,3.1-2.6,5.7-5.7,5.7h-4.2V250.4z M269.3,258.8h1.3
		c1.5,0,2.7-1.2,2.7-2.7c0-1.5-1.2-2.7-2.7-2.7h-1.3V258.8z"/>
	<path fill="#FFFFFF" d="M284.4,250.4h3v11.4h-3V250.4z"/>
	<path fill="#FFFFFF" d="M301.3,250.4c3.1,0,5.7,2.6,5.7,5.7c0,3.1-2.6,5.7-5.7,5.7c-3.1,0-5.7-2.5-5.7-5.7
		C295.6,253,298.1,250.4,301.3,250.4z M301.3,253.4c-1.5,0-2.7,1.2-2.7,2.7c0,1.5,1.2,2.7,2.7,2.7c1.5,0,2.7-1.2,2.7-2.7
		C304,254.6,302.8,253.4,301.3,253.4z"/>
</g>
<path fill="#54A4DB" d="M171.9,111.3c0,3.5,2.8,6.3,6.3,6.3h7.4c3.7,0,6.6,0.9,8.6,2.8c2,1.8,3,4.9,3,9.2c0,0.7,0,1.3-0.1,1.9h0
	c0,0,0,0,0,0c0,0,0,0,0,0h0c0.1,0.6,0.1,1.2,0.1,1.9c0,4.3-1,7.3-3,9.2c-2,1.8-4.8,2.8-8.6,2.8h-13.7v0.1c-0.4,0-0.9,0-1.3,0
	c-8,0-14.1,1.9-18.2,5.6c-4.1,3.8-6.2,9.1-6.2,15.9v5.5c0,3.5,2.8,6.3,6.3,6.3h0c3.5,0,6.3-2.8,6.3-6.3v-4.9c0-3.1,0.9-5.4,2.7-7
	c1.8-1.6,4.8-2.4,9.1-2.4c0.7,0,1.3,0,1.9,0.1V158h13.8c8.4,0,14.9-2.1,19.5-6.3c4.6-4.2,6.9-10.3,6.9-18.4c0-0.6,0-1.1,0-1.7
	c0-0.2,0-0.3,0-0.5c0-0.6,0-1.1,0-1.7c0-8.1-2.3-14.2-6.9-18.4c-4.6-4.2-11.1-6.3-19.5-6.3h-8.2c-3.5,0-6.3,2.8-6.3,6.3V111.3z"/>
<path fill="#E7287A" d="M143.9,151.5c0-3.5-2.8-6.3-6.3-6.3h-7.4c-3.7,0-6.6-0.9-8.6-2.7c-2-1.8-3-4.9-3-9.1c0-0.7,0-1.3,0.1-1.9h0
	c0,0,0,0,0,0c0,0,0,0,0,0h0c-0.1-0.6-0.1-1.2-0.1-1.9c0-4.3,1-7.3,3-9.1c2-1.8,4.8-2.7,8.6-2.7h13.7v-0.1c0.4,0,0.9,0,1.3,0
	c8,0,14.1-1.9,18.2-5.6c4.1-3.7,6.2-9,6.2-15.8v-6.2c0-3.1-2.5-5.5-5.5-5.5h-1.2c-3.2,0-5.8,2.6-5.8,5.8v5.3c0,3-0.9,5.4-2.7,7
	c-1.8,1.6-4.8,2.4-9.1,2.4c-0.7,0-1.3,0-1.9-0.1v0.1h-13.8c-8.4,0-14.9,2.1-19.5,6.2c-4.6,4.2-6.9,10.3-6.9,18.3
	c0,0.7,0,1.3,0.1,1.9c0,0.6-0.1,1.3-0.1,1.9c0,8,2.3,14.2,6.9,18.3c4.6,4.2,11.1,6.2,19.5,6.2h8.1C141,157.8,143.9,155,143.9,151.5
	L143.9,151.5z"/>
<path fill="#FFFFFF" d="M131.8,125.9c1-1.1,2.5-1.6,4.5-1.6h39.2v-0.1h4.1c4,0,6.1,2.3,6.1,6.9c0,2.5-0.5,4.2-1.6,5.3
	c-1,1.1-2.5,1.6-4.5,1.6h-8.9v0.1h-34.3c-4,0-6.1-2.3-6.1-6.9C130.2,128.7,130.7,126.9,131.8,125.9z"/>
<polygon fill="#FFFFFF" points="312.8,260.2 320.9,256.2 321.2,256.2 321.1,256.1 321.2,256.1 320.9,256.1 312.8,252 311.3,254.2 
	314.8,256.1 311.3,258.1 "/>
<polygon fill="#FFFFFF" points="37.4,252.2 29.3,256.3 29,256.3 29.1,256.3 29,256.4 29.3,256.4 37.4,260.5 38.9,258.3 35.4,256.3 
	38.9,254.4 "/>
</svg>
