<?xml version="1.0" encoding="utf-8"?>
<!-- Generator: Adobe Illustrator 23.0.0, SVG Export Plug-In . SVG Version: 6.00 Build 0)  -->
<svg version="1.2" baseProfile="tiny" id="Capa_1" xmlns="http://www.w3.org/2000/svg" xmlns:xlink="http://www.w3.org/1999/xlink"
	 x="0px" y="0px" viewBox="0 0 108 31" xml:space="preserve">
<path fill="#ED1E79" d="M102.7,8.7c-1.5-1.5-3.7-2.3-6.5-2.3H59.4v4.6H96c2.6,0,3.8,1.5,3.8,4.4c0,1.6-0.3,2.7-1,3.4
	c-0.7,0.7-1.6,1-2.9,1H59.4v4.7h36.8c2.8,0,4.9-0.8,6.5-2.3c1.5-1.5,2.3-3.8,2.3-6.7C105,12.5,104.2,10.3,102.7,8.7z"/>
<path fill="#3FA9F5" d="M53.8,11.2h4.6V6.5h-4.8c-2.6,0-4.6,0.7-6.1,2C45.8,7,43.7,6.3,41,6.3h-2.6c-1.3,0-2.3,1-2.3,2.3v0.1
	c0,1.3,1,2.3,2.3,2.3h2.3c1.3,0,2.2,0.3,2.9,1c0.7,0.7,1,1.8,1,3.4c0,3-1.3,4.4-3.9,4.4h-3.6c-0.9,0-1.7,0.5-2.1,1.3c0,0,0,0,0,0.1
	c-0.7,1.5,0.4,3.3,2.1,3.3c2.1,0,3.9,0,3.9,0c2.6,0,4.6-0.7,6.1-2c1.5,1.5,3.7,2.2,6.4,2.2h4.8V20h-4.6c-2.6,0-3.9-1.5-3.9-4.4
	c0-1.6,0.3-2.7,1-3.4C51.5,11.5,52.5,11.2,53.8,11.2z"/>
<path fill="#ED1E79" d="M16.1,18.2c-0.6,1.4-1.9,2.1-4.1,2.1c-1.6,0-2.7-0.3-3.4-1c-0.7-0.7-1-1.6-1-2.9V8.7c0-1.3-1-2.3-2.3-2.3h0
	C4,6.4,3,7.4,3,8.7v8c0,2.8,0.8,4.9,2.3,6.5c1.5,1.5,3.8,2.3,6.7,2.3c3,0,5.2-0.8,6.7-2.3c0,0,0,0,0.1-0.1c1.5,1.4,3.7,2,6.5,2
	c3,0,5.2-0.8,6.7-2.3c1.5-1.5,2.3-3.7,2.3-6.5V8.6c0-1.3-1-2.3-2.3-2.3h0c-1.3,0-2.3,1-2.3,2.3v7.6c0,2.6-1.5,3.8-4.4,3.8
	c-1.6,0-2.7-0.3-3.4-1c-0.3-0.3-0.6-0.8-0.8-1.2C21.1,17.5,21,17.3,21,17c0-0.1,0-0.2,0-0.3v-8c0-1.3-1-2.3-2.3-2.3h-0.2
	c-1.3,0-2.3,1-2.3,2.3v7.7"/>
<circle fill="#FFFFFF" cx="93.9" cy="15.4" r="3"/>
<g>
</g>
<g>
</g>
<g>
</g>
<g>
</g>
<g>
</g>
<g>
</g>
<g>
</g>
<g>
</g>
<g>
</g>
<g>
</g>
<g>
</g>
<g>
</g>
<g>
</g>
<g>
</g>
<g>
</g>
</svg>
